<svg width="1200" height="1400" viewBox="0 0 1200 1400" fill="none" xmlns="http://www.w3.org/2000/svg">
  <rect width="1200" height="1400" fill="#0F0A14"/>
  <rect x="54" y="52" width="1092" height="1296" rx="44" fill="#17131D"/>
  <rect x="118" y="112" width="964" height="1176" rx="34" fill="#1E1725" stroke="#34293D"/>
  <g opacity="0.75" filter="url(#filter0_f_1_2)">
    <ellipse cx="899" cy="228" rx="248" ry="160" fill="#FF4E7C"/>
  </g>
  <g opacity="0.7" filter="url(#filter1_f_1_2)">
    <ellipse cx="302" cy="1096" rx="220" ry="126" fill="#6E44FF"/>
  </g>
  <rect x="160" y="176" width="414" height="924" rx="28" fill="#FAF3F7"/>
  <rect x="196" y="216" width="342" height="496" rx="18" fill="#F1E6ED"/>
  <path d="M226 278C284 240 375 246 427 300C490 365 488 462 440 516C384 578 302 574 255 517C203 454 173 313 226 278Z" fill="#28202F"/>
  <path d="M260 362C296 330 351 336 385 366C426 404 430 463 396 500C355 543 297 540 267 500C233 455 225 393 260 362Z" fill="#FF5E86"/>
  <path d="M197 759H538" stroke="#D9CAD5" stroke-width="3"/>
  <path d="M198 804H501" stroke="#221A27" stroke-width="16" stroke-linecap="round"/>
  <path d="M198 854H528" stroke="#B5A3B3" stroke-width="16" stroke-linecap="round"/>
  <path d="M198 904H452" stroke="#221A27" stroke-width="16" stroke-linecap="round"/>
  <path d="M198 954H476" stroke="#B5A3B3" stroke-width="16" stroke-linecap="round"/>
  <rect x="624" y="176" width="388" height="298" rx="26" fill="#221A27" stroke="#44344F"/>
  <rect x="662" y="220" width="84" height="154" rx="14" fill="#FFB4C5"/>
  <rect x="762" y="220" width="84" height="154" rx="14" fill="#FF6B8A"/>
  <rect x="862" y="220" width="84" height="154" rx="14" fill="#6E44FF"/>
  <path d="M664 405H950" stroke="#5A4B67" stroke-width="3"/>
  <path d="M664 437H882" stroke="#C7B8C6" stroke-width="12" stroke-linecap="round"/>
  <rect x="624" y="514" width="388" height="300" rx="26" fill="#FAF3F7"/>
  <rect x="712" y="568" width="212" height="192" rx="18" fill="#111111"/>
  <circle cx="734" cy="590" r="8" fill="#FAF3F7"/>
  <path d="M734 590L803 657" stroke="#FAF3F7" stroke-width="3"/>
  <path d="M760 625H875" stroke="#FF5E86" stroke-width="6" stroke-linecap="round" stroke-dasharray="1 14"/>
  <path d="M760 660H875" stroke="#FAF3F7" stroke-width="6" stroke-linecap="round"/>
  <path d="M760 695H846" stroke="#8C7A95" stroke-width="6" stroke-linecap="round"/>
  <rect x="648" y="856" width="340" height="208" rx="24" fill="#221A27" stroke="#44344F"/>
  <path d="M696 910H942" stroke="#5A4B67" stroke-width="3"/>
  <path d="M696 950H922" stroke="#F6F1F7" stroke-width="14" stroke-linecap="round"/>
  <path d="M696 998H876" stroke="#FF6B8A" stroke-width="14" stroke-linecap="round"/>
  <path d="M696 1046H842" stroke="#B9A8BE" stroke-width="14" stroke-linecap="round"/>
  <rect x="870" y="1088" width="142" height="118" rx="22" fill="#FF3F70"/>
  <path d="M904 1128H972" stroke="white" stroke-width="8" stroke-linecap="round"/>
  <path d="M904 1160H950" stroke="white" stroke-width="8" stroke-linecap="round"/>
  <defs>
    <filter id="filter0_f_1_2" x="491" y="-92" width="816" height="640" filterUnits="userSpaceOnUse" color-interpolation-filters="sRGB">
      <feFlood flood-opacity="0" result="BackgroundImageFix"/>
      <feBlend mode="normal" in="SourceGraphic" in2="BackgroundImageFix" result="shape"/>
      <feGaussianBlur stdDeviation="80" result="effect1_foregroundBlur_1_2"/>
    </filter>
    <filter id="filter1_f_1_2" x="-78" y="810" width="760" height="572" filterUnits="userSpaceOnUse" color-interpolation-filters="sRGB">
      <feFlood flood-opacity="0" result="BackgroundImageFix"/>
      <feBlend mode="normal" in="SourceGraphic" in2="BackgroundImageFix" result="shape"/>
      <feGaussianBlur stdDeviation="80" result="effect1_foregroundBlur_1_2"/>
    </filter>
  </defs>
</svg>
